<svg width="201" height="143" viewBox="0 0 201 143" fill="none" xmlns="http://www.w3.org/2000/svg">
<path d="M56.1735 159.046L130.259 165.806C133.024 166.058 135.718 164.95 137.341 162.893L181.075 107.458C182.718 105.375 183.012 102.638 181.845 100.287L150.898 37.9359C149.737 35.5968 147.307 33.9962 144.524 33.7365L69.8163 26.7676C67.0239 26.5073 64.3014 27.636 62.6808 29.7267L19.555 85.3453C17.9439 87.4228 17.6648 90.1357 18.8221 92.4676L49.7821 154.845C50.9455 157.189 53.3832 158.791 56.1735 159.046Z" fill="#FF2E00"/>
<path d="M62.3398 67.8929C62.3024 67.6129 62.1764 67.3422 61.9618 67.0809C61.7471 66.8196 61.4298 66.6049 61.0098 66.4369C60.5991 66.2596 60.0998 66.1709 59.5118 66.1709C58.4291 66.1709 57.6078 66.4136 57.0478 66.8989C56.4971 67.3842 56.2218 68.0796 56.2218 68.9849C56.2218 69.8902 56.4971 70.5856 57.0478 71.0709C57.6078 71.5562 58.4291 71.7989 59.5118 71.7989C60.3984 71.7989 61.0751 71.6169 61.5418 71.2529C62.0084 70.8889 62.2698 70.4269 62.3258 69.8669H66.1758C66.1384 71.3136 65.5504 72.4149 64.4118 73.1709C63.2824 73.9269 61.6538 74.3049 59.5258 74.3049C57.3324 74.3049 55.6478 73.8662 54.4718 72.9889C53.3051 72.1022 52.7218 70.7676 52.7218 68.9849C52.7218 67.2022 53.3051 65.8722 54.4718 64.9949C55.6478 64.1082 57.3324 63.6649 59.5258 63.6649C61.6351 63.6649 63.2544 64.0336 64.3838 64.7709C65.5131 65.4989 66.1011 66.5396 66.1478 67.8929H62.3398ZM74.1166 63.6649C76.366 63.6649 78.0833 64.1036 79.2686 64.9809C80.4633 65.8582 81.0606 67.1929 81.0606 68.9849C81.0606 70.7769 80.4633 72.1116 79.2686 72.9889C78.0833 73.8662 76.366 74.3049 74.1166 74.3049C71.8673 74.3049 70.15 73.8662 68.9646 72.9889C67.7793 72.1116 67.1866 70.7769 67.1866 68.9849C67.1866 67.1929 67.7793 65.8582 68.9646 64.9809C70.15 64.1036 71.8673 63.6649 74.1166 63.6649ZM74.1166 71.7989C75.274 71.7989 76.1373 71.5562 76.7066 71.0709C77.276 70.5856 77.5606 69.8902 77.5606 68.9849C77.5606 68.0796 77.276 67.3842 76.7066 66.8989C76.1373 66.4136 75.274 66.1709 74.1166 66.1709C72.9686 66.1709 72.11 66.4136 71.5406 66.8989C70.9713 67.3842 70.6866 68.0796 70.6866 68.9849C70.6866 69.8902 70.9713 70.5856 71.5406 71.0709C72.11 71.5562 72.9686 71.7989 74.1166 71.7989ZM94.7173 63.9869V73.9829H91.0353L85.5053 67.6689H85.4213V73.9829H82.3833V63.9869H86.1353L91.5813 70.2029H91.6653V63.9869H94.7173ZM108.676 63.9869V73.9829H104.994L99.4643 67.6689H99.3803V73.9829H96.3423V63.9869H100.094L105.54 70.2029H105.624V63.9869H108.676ZM113.493 67.8089H120.801V69.9229H113.493V71.6869H121.263V73.9829H110.301V63.9869H121.109V66.2689H113.493V67.8089ZM131.82 67.8929C131.783 67.6129 131.657 67.3422 131.442 67.0809C131.228 66.8196 130.91 66.6049 130.49 66.4369C130.08 66.2596 129.58 66.1709 128.992 66.1709C127.91 66.1709 127.088 66.4136 126.528 66.8989C125.978 67.3842 125.702 68.0796 125.702 68.9849C125.702 69.8902 125.978 70.5856 126.528 71.0709C127.088 71.5562 127.91 71.7989 128.992 71.7989C129.879 71.7989 130.556 71.6169 131.022 71.2529C131.489 70.8889 131.75 70.4269 131.806 69.8669H135.656C135.619 71.3136 135.031 72.4149 133.892 73.1709C132.763 73.9269 131.134 74.3049 129.006 74.3049C126.813 74.3049 125.128 73.8662 123.952 72.9889C122.786 72.1022 122.202 70.7676 122.202 68.9849C122.202 67.2022 122.786 65.8722 123.952 64.9949C125.128 64.1082 126.813 63.6649 129.006 63.6649C131.116 63.6649 132.735 64.0336 133.864 64.7709C134.994 65.4989 135.582 66.5396 135.628 67.8929H131.82ZM148.404 66.5489H143.966V73.9829H140.774V66.5489H136.322V63.9869H148.404V66.5489Z" fill="white"/>
<path d="M97.957 84.7109V104.295C97.957 108.263 97.109 111.415 95.413 113.751C93.749 116.055 91.381 117.687 88.309 118.647C85.237 119.607 81.445 120.087 76.933 120.087C72.421 120.087 68.629 119.607 65.557 118.647C62.485 117.687 60.101 116.055 58.405 113.751C56.741 111.415 55.909 108.263 55.909 104.295V84.7109H66.853V104.103C66.853 106.759 67.717 108.647 69.445 109.767C71.205 110.855 73.701 111.399 76.933 111.399C80.165 111.399 82.645 110.855 84.373 109.767C86.133 108.647 87.013 106.759 87.013 104.103V84.7109H97.957ZM131.518 95.0309C131.23 93.5269 130.366 92.4709 128.926 91.8629C127.486 91.2229 125.406 90.9029 122.686 90.9029C119.966 90.9029 118.014 91.1749 116.83 91.7189C115.678 92.2309 115.102 92.9989 115.102 94.0229C115.102 94.8549 115.454 95.4629 116.158 95.8469C116.862 96.2309 118.014 96.5029 119.614 96.6629L133.246 97.8149C137.278 98.1669 140.302 99.1749 142.318 100.839C144.334 102.503 145.342 105.015 145.342 108.375C145.342 111.479 144.51 113.879 142.846 115.575C141.182 117.271 138.766 118.439 135.598 119.079C132.462 119.751 128.382 120.087 123.358 120.087C118.526 120.087 114.574 119.735 111.502 119.031C108.462 118.327 106.094 117.079 104.398 115.287C102.734 113.463 101.838 110.887 101.71 107.559H114.382C114.734 109.543 115.662 110.887 117.166 111.591C118.67 112.295 120.926 112.647 123.934 112.647C126.91 112.647 129.07 112.375 130.414 111.831C131.758 111.255 132.43 110.375 132.43 109.191C132.43 108.199 132.046 107.479 131.278 107.031C130.51 106.551 129.422 106.247 128.014 106.119L114.814 104.823C110.718 104.407 107.646 103.431 105.598 101.895C103.582 100.359 102.574 97.9429 102.574 94.6469C102.574 90.5829 104.318 87.7349 107.806 86.1029C111.294 84.4389 116.414 83.6069 123.166 83.6069C129.918 83.6069 135.054 84.4549 138.574 86.1509C142.126 87.8149 143.982 90.7749 144.142 95.0309H131.518Z" fill="white"/>
</svg>
