<svg width="47" height="54" viewBox="0 0 47 54" fill="none" xmlns="http://www.w3.org/2000/svg">
<path d="M24.6905 0.344076L24.4385 0.775328C23.8085 0.407141 23.0324 0.408253 22.4032 0.77851L22.4032 0.778538L1.51392 13.0694C1.5139 13.0694 1.51389 13.0694 1.51387 13.0694C0.888146 13.4377 0.5 14.1173 0.5 14.8555V39.2908C0.5 40.0329 0.891997 40.7153 1.52307 41.0822L22.4123 53.227C23.037 53.59 23.804 53.591 24.4297 53.2299L24.6905 0.344076ZM24.6905 0.344076L24.4385 0.775333L45.4807 13.0714C46.1096 13.4389 46.5 14.1201 46.5 14.8606V39.2857C46.5 40.0298 46.1056 40.7139 45.4715 41.0803C45.4715 41.0803 45.4714 41.0803 45.4714 41.0804L24.4298 53.2299L24.6905 0.344076Z" stroke="#FF2E00"/>
</svg>
